<svg width="20" height="20" viewBox="0 0 20 20" fill="none" xmlns="http://www.w3.org/2000/svg"><path d="M11.667 3.698c1.122 0 2.031-.91 2.031-2.031h.938a2.03 2.03 0 0 0 2.03 2.03v.938c-1.121 0-2.03.91-2.03 2.032h-.938c0-1.122-.91-2.032-2.031-2.032zM.833 9.166a5 5 0 0 0 5-5H7.5a5 5 0 0 0 5 5v1.667a5 5 0 0 0-5 5H5.834a5 5 0 0 0-5-5zm3.23.834a6.7 6.7 0 0 1 2.604 2.603A6.7 6.7 0 0 1 9.27 10a6.7 6.7 0 0 1-2.603-2.603A6.7 6.7 0 0 1 4.064 10m10.312 1.666a2.71 2.71 0 0 1-2.708 2.709v1.25a2.71 2.71 0 0 1 2.708 2.708h1.25a2.71 2.71 0 0 1 2.709-2.708v-1.25a2.71 2.71 0 0 1-2.709-2.709z" fill="currentColor"/></svg>
